<svg width="197px" height="273px" viewBox="0 0 197 273" version="1.1" xmlns="http://www.w3.org/2000/svg" xmlns:xlink="http://www.w3.org/1999/xlink">
    <!-- Generator: Sketch 47.1 (45422) - http://www.bohemiancoding.com/sketch -->
    <desc>Created with Sketch.</desc>
    <defs></defs>
    <g id="Page-1" stroke="none" stroke-width="1" fill="none" fill-rule="evenodd">
        <g id="Desktop" transform="translate(-102.000000, -64.000000)" fill-rule="nonzero" fill="#FFFFFF">
            <g id="jellyfish" transform="translate(100.000000, 62.000000)">
                <path d="M2.15384615,103.701538 C2.15384615,76.7661538 13.1723077,50.4430769 32.7630769,30.8553846 C51.1292308,12.4892308 75.0030769,2.69538462 100.101538,2.69538462 L101.938462,2.69538462 C155.196923,4.53230769 198.046154,47.9938462 198.046154,101.252308 L198.046154,107.375385 C198.046154,127.575385 181.516923,144.104615 161.316923,144.104615 L38.8861538,144.104615 C18.6861538,144.104615 2.15692308,127.575385 2.15692308,107.375385 L2.15692308,103.701538 L2.15384615,103.701538 Z" id="Shape"></path>
                <path d="M57.3630769,274.203077 C52.7076923,274.203077 47.3046154,272.541538 41.7015385,267.427692 C39.8184615,265.707692 39.6861538,262.787692 41.4030769,260.907692 C43.1230769,259.024615 46.04,258.895385 47.9230769,260.606154 C53.2153846,265.443077 58.4338462,266.236923 63.8584615,263.046154 C66.2369231,261.652308 68.0369231,259.243077 68.6738462,256.6 C69.0461538,255.058462 69.1907692,252.753846 67.7753846,250.523077 C64.8123077,245.858462 61.3569231,241.698462 59.6123077,240.147692 C57.8092308,238.544615 55.2,235.950769 53.7015385,234.089231 C13.0184615,183.750769 56.9753846,141.175385 57.4246154,140.750769 C59.2769231,139.003077 62.2,139.083077 63.9507692,140.935385 C65.6984615,142.784615 65.6184615,145.701538 63.7723077,147.452308 C62.1938462,148.956923 25.6369231,184.673846 60.8861538,228.292308 C62.0030769,229.673846 64.28,231.941538 65.7507692,233.246154 C68.4769231,235.670769 72.4246154,240.621538 75.5661538,245.569231 C78.0276923,249.443077 78.7692308,254.126154 77.6492308,258.763077 C76.4184615,263.861538 73.0984615,268.323077 68.5353846,271.006154 C65.9292308,272.538462 62.0215385,274.203077 57.3630769,274.203077 Z" id="Shape"></path>
                <path d="M144.609231,256.083077 C140.48,256.083077 137.012308,254.606154 134.701538,253.246154 C130.649231,250.867692 127.692308,246.901538 126.593846,242.36 C125.593846,238.215385 126.255385,234.024615 128.455385,230.553846 C131.172308,226.286154 134.590769,221.996923 136.975385,219.873846 C138.209231,218.778462 140.116923,216.876923 141.064615,215.707692 C170.947692,178.726154 139.987692,148.716923 138.658462,147.455385 C136.803077,145.707692 136.723077,142.784615 138.473846,140.932308 C140.224615,139.076923 143.147692,139 144.996923,140.747692 C145.384615,141.116923 183.427692,177.963077 148.243077,221.510769 C146.92,223.144615 144.661538,225.393846 143.110769,226.769231 C141.652308,228.067692 138.747692,231.575385 136.249231,235.504615 C135.163077,237.215385 135.28,238.996923 135.566154,240.190769 C136.070769,242.276923 137.495385,244.181538 139.375385,245.283077 C143.796923,247.88 147.883077,247.243077 152.221538,243.28 C154.107692,241.563077 157.024615,241.692308 158.741538,243.575385 C160.461538,245.458462 160.329231,248.378462 158.446154,250.095385 C153.501538,254.615385 148.726154,256.083077 144.609231,256.083077 Z" id="Shape"></path>
                <path d="M104.796923,240.763077 C100.516923,240.763077 96.2707692,239 92.4676923,235.529231 C90.5846154,233.809231 90.4523077,230.892308 92.1692308,229.009231 C93.8861538,227.132308 96.8061538,226.993846 98.6892308,228.713846 C102.123077,231.846154 105.329231,232.363077 108.787692,230.329231 C110.224615,229.486154 111.310769,228.027692 111.695385,226.433846 C111.907692,225.550769 111.996923,224.236923 111.206154,222.990769 C109.107692,219.695385 106.701538,216.778462 105.501538,215.713846 C104.150769,214.510769 102.193846,212.566154 101.064615,211.166154 C76.8215385,181.163077 92.3076923,152.541538 103.883077,141.603077 C105.735385,139.849231 108.658462,139.935385 110.406154,141.787692 C112.153846,143.636923 112.076923,146.553846 110.230769,148.304615 C109.116923,149.369231 83.3784615,174.596923 108.243077,205.366154 C109.012308,206.316923 110.606154,207.898462 111.64,208.818462 C113.692308,210.643077 116.652308,214.350769 119,218.04 C120.975385,221.147692 121.569231,224.898462 120.676923,228.6 C119.701538,232.636923 117.073846,236.172308 113.464615,238.289231 C110.646154,239.944615 107.713846,240.763077 104.796923,240.763077 Z" id="Shape"></path>
            </g>
        </g>
    </g>
</svg>